<?xml version="1.0" encoding="UTF-8" standalone="no"?>
<!-- Created with Inkscape (http://www.inkscape.org/) -->

<svg
   version="1.1"
   id="svg3722"
   width="252.12076"
   height="308.48584"
   viewBox="0 0 252.12076 308.48584"
   sodipodi:docname="i1.svg"
   inkscape:version="1.2.2 (732a01da63, 2022-12-09, custom)"
   xmlns:inkscape="http://www.inkscape.org/namespaces/inkscape"
   xmlns:sodipodi="http://sodipodi.sourceforge.net/DTD/sodipodi-0.dtd"
   xmlns="http://www.w3.org/2000/svg"
   xmlns:svg="http://www.w3.org/2000/svg">
  <defs
     id="defs3726" />
  <sodipodi:namedview
     id="namedview3724"
     pagecolor="#ffffff"
     bordercolor="#000000"
     borderopacity="0.25"
     inkscape:showpageshadow="2"
     inkscape:pageopacity="0.0"
     inkscape:pagecheckerboard="0"
     inkscape:deskcolor="#d1d1d1"
     showgrid="false"
     inkscape:zoom="0.97035431"
     inkscape:cx="223.62966"
     inkscape:cy="276.18778"
     inkscape:window-width="1920"
     inkscape:window-height="1031"
     inkscape:window-x="0"
     inkscape:window-y="25"
     inkscape:window-maximized="1"
     inkscape:current-layer="layer4" />
  <g
     inkscape:groupmode="layer"
     id="layer4"
     inkscape:label="Layer 1"
     transform="translate(188.62084,243.20585)">
    <path
       style="fill:#000000;stroke-width:1.55521"
       d="m -142.46718,62.476805 c 0,-1.98278 -2.38959,-3.637596 -8.16483,-5.654231 -4.49065,-1.56808 -10.75865,-5.317714 -13.92889,-8.332508 -7.36608,-7.004941 -10.63105,-19.990453 -11.61515,-46.1958813 -0.7289,-19.4099247 -2.36406,-25.7254577 -9.54141,-36.8518917 -4.49892,-6.974304 -3.99336,-12.370915 3.09489,-33.036468 3.83647,-11.185095 4.41664,-14.463579 2.96957,-16.780709 -0.98915,-1.583869 -2.44865,-6.308301 -3.24335,-10.498724 -1.29692,-6.838662 -0.72587,-10.040622 5.57582,-31.264372 7.67762,-25.85775 11.97602,-35.29346 18.95514,-41.60965 5.12442,-4.63765 6.64493,-11.39184 7.08589,-31.47585 0.22599,-10.29218 0.80986,-12.50555 4.6159,-17.4977 5.20372,-6.82538 9.65749,-9.20899 22.08128,-11.81763 5.13218,-1.07761 13.25222,-3.29393 18.04454,-4.92515 4.79231,-1.63122 9.646105,-2.96586 10.786197,-2.96586 1.140097,0 3.751015,-1.57465 5.802039,-3.49921 3.281123,-3.07882 5.195955,-3.46489 15.938443,-3.21352 8.805694,0.20605 13.411824,1.07315 16.522876,3.11041 2.372465,1.55359 7.492512,3.00225 11.377882,3.21923 3.885369,0.21699 14.32224,0.73703 23.193038,1.15567 12.655095,0.59722 17.2464204,1.45193 21.3183998,3.96856 6.0722213,3.75283 13.0970542,11.67151 13.0970542,14.76353 0,1.18732 1.319884,2.86515 2.933083,3.7285 3.956088,2.11724 8.786803,10.59679 9.882134,17.34652 0.49233,3.03391 2.761685,8.26666 5.043016,11.62835 2.281331,3.36168 4.537763,8.06158 5.014293,10.4442 0.476573,2.38263 2.173681,5.03166 3.771407,5.88674 1.607596,0.86036 2.904968,3.23507 2.904968,5.31729 0,2.06944 1.658485,5.42109 3.685525,7.44813 2.02704,2.02704 5.593048,7.13271 7.924471,11.34593 2.331408,4.21322 5.6107,9.14657 7.287289,10.963 4.258754,4.61395 4.881614,31.56078 0.832919,36.034538 -1.442623,1.594085 -2.622946,4.510747 -2.622946,6.481469 0,1.970727 -1.463949,4.852804 -3.253212,6.404617 -1.789264,1.551832 -2.797718,3.55848 -2.241017,4.45924 0.5567,0.90076 -0.07883,1.637738 -1.412409,1.637738 -1.692855,0 -2.433104,1.525409 -2.452777,5.054417 -0.01555,2.77993 -1.978299,8.55363 -4.361807,12.830444 -2.383493,4.276815 -5.120046,9.175711 -6.081226,10.886437 -2.695463,4.797468 -7.952154,16.836264 -8.488403,19.440066 -0.264239,1.283045 -0.867304,2.682729 -1.34015,3.110411 -0.472831,0.427681 -2.549773,3.556195 -4.615417,6.952268 -2.065652,3.396068 -7.711203,10.5393736 -12.545651,15.8740096 C 1.3278502,7.4216966 -4.0539085,17.659676 -4.0539085,25.676011 c 0,5.673408 -5.4784439,13.165498 -9.6270125,13.165498 -2.513508,0 -18.454425,7.890242 -21.199377,10.492999 -1.130294,1.071755 -3.054861,1.948643 -4.276815,1.948643 -1.221944,0 -2.221723,0.618224 -2.221723,1.37382 0,0.755597 -1.224724,1.760415 -2.721609,2.23292 -1.496885,0.472491 -5.520979,2.396431 -8.94243,4.275381 -3.421452,1.87897 -7.436044,4.023442 -8.921328,4.765509 -1.48528,0.742066 -20.206063,1.349218 -41.601737,1.349218 -36.44328,0 -38.90124,-0.177148 -38.90124,-2.803194 z m 35.21109,-17.051752 c 3.30101,-1.511227 7.948258,-4.055465 10.327197,-5.653871 4.75054,-3.191889 7.359455,-2.369701 4.27475,1.347148 -1.589313,1.915002 -1.512093,2.520783 0.415628,3.260517 3.074612,1.179842 10.90857,-2.907578 14.622915,-7.629619 1.604909,-2.040303 4.396488,-4.17888 6.203539,-4.752411 1.810215,-0.574556 3.758776,-2.928339 4.339446,-5.241897 0.929405,-3.703065 1.234536,-3.876335 2.582991,-1.466758 0.841012,1.502776 2.185919,2.326383 2.988716,1.830244 0.802797,-0.49616 1.47034,0.01409 1.483433,1.133681 0.0175,1.479297 0.435943,1.398115 1.531396,-0.296996 1.340077,-2.073599 1.51634,-2.073599 1.586499,0 0.0504,1.491117 0.789621,1.052656 2.048638,-1.215174 1.083356,-1.951394 2.380368,-3.137364 2.882247,-2.63548 1.531722,1.531722 9.036258,-6.419265 9.01086,-9.546924 -0.01993,-2.462313 -0.265357,-2.558313 -1.531397,-0.599269 -0.829172,1.283044 -1.507567,1.632965 -1.507567,0.777602 0,-0.855362 0.678395,-2.604968 1.507567,-3.888013 1.340077,-2.0735987 1.523373,-2.0735987 1.649719,0 0.07825,1.283045 1.085406,-0.11664 2.238295,-3.1104103 1.152888,-2.9937702 2.14942,-4.6256471 2.214491,-3.6264132 0.06503,0.9992535 0.534256,3.0987806 1.042624,4.6656159 0.768723,2.3692966 0.641848,2.4561356 -0.753779,0.5160026 -0.922966,-1.2830444 -1.698377,-1.6329656 -1.723153,-0.7776027 -0.02479,0.8553629 -0.436527,3.0132107 -0.91502,4.7952127 -0.611881,2.27878 -0.144148,3.240023 1.576434,3.240023 1.345535,0 2.446416,-0.908507 2.446416,-2.01889 0,-1.110402 1.399685,-2.767988 3.110411,-3.683538 1.710725,-0.9155491 3.11041,-3.0810024 3.11041,-4.812116 0,-1.7311136 0.679328,-2.7276259 1.509609,-2.2144859 0.83029,0.5131399 1.950072,-0.8218969 2.488391,-2.96677283 0.538335,-2.14486137 1.768487,-3.74812247 2.733677,-3.56280527 0.96519,0.1853125 3.984062,-6.2914274 6.708611,-14.392769 2.72455,-8.101346 5.714447,-14.983285 6.644212,-15.293203 0.9297791,-0.309924 1.3115334,0.424036 0.8483641,1.631065 -0.4632081,1.207009 -0.1215976,4.08983 0.7591394,6.406265 1.2549146,3.30069 1.1206372,4.396128 -0.6208185,5.064399 -1.222178,0.468992 -3.312791,2.51727 -4.645836,4.551761 -2.262464,3.452959 -2.19108,3.919831 1.073092,7.0171928 8.5628972,8.12526729 19.0293656,6.81941973 27.986498,-3.4917468 7.183551,-8.269474 17.345219,-28.680581 19.986157,-40.144995 1.08373,-4.704496 2.457866,-9.133813 3.053631,-9.842924 1.344334,-1.600102 -4.134946,-7.369121 -9.691602,-10.204042 -5.847451,-2.983292 -14.730331,-0.967012 -20.3066268,4.609283 -2.5031807,2.503181 -5.109768,4.551246 -5.7924108,4.551246 -0.6826573,0 -1.64417757,2.015035 -2.13674511,4.477844 -0.62506616,3.125321 -2.09300989,4.778368 -4.86001649,5.472845 -2.1804416,0.547257 -3.9644516,1.706138 -3.9644516,2.575308 0,1.035004 -0.958021,1.067571 -2.7764882,0.09438 -2.227958,-1.192376 -3.428096,-0.511862 -6.074618,3.444483 -1.813962,2.711753 -3.811298,8.079729 -4.438512,11.928862 -0.871284,5.347044 -1.399432,6.27032 -2.238251,3.91277 -0.932098,-2.619709 -1.388006,-2.206569 -3.019183,2.735932 -1.056699,3.201876 -2.514345,5.455057 -3.239182,5.00708 -0.724847,-0.447996 -1.810536,0.737649 -2.412668,2.634752 -0.602112,1.897083 -2.052171,4.406688 -3.222366,5.576888 -1.170199,1.170195 -2.127632,3.912926 -2.127632,6.094971 0,3.2144392 -0.411061,3.6261944 -2.166013,2.1697301 -1.760521,-1.4611008 -2.447178,-0.6960808 -3.667825,4.0863796 -1.228209,4.8120676 -1.724878,5.3595971 -2.726212,3.00546341 -0.698384,-1.64187397 -0.550528,-3.31225681 0.344138,-3.88801321 1.351255,-0.8696076 1.477912,-3.7156333 0.460195,-10.3406819 -0.131415,-0.855363 -0.84037,-0.15552 -1.575501,1.555206 -1.028345,2.393101 -1.3618,2.5266785 -1.445888,0.579221 -0.06017,-1.392142 0.940447,-3.4024 2.223491,-4.467235 2.564626,-2.128454 3.277396,-8.543379 0.777603,-6.998423 -0.855363,0.528643 -1.555206,-0.52112 -1.555206,-2.332808 0,-6.616155 -3.118512,-1.154055 -3.382119,5.923806 l -0.271675,7.295439 -0.587168,-6.442783 c -0.47458,-5.207294 -1.105206,-6.307291 -3.288666,-5.736312 -4.764172,1.245861 -7.873543,-4.095662 -6.489969,-11.148985 l 1.220277,-6.220821 0.178849,6.868827 c 0.181279,6.96191 1.846495,7.849728 2.52315,1.345223 0.651583,-6.263434 1.050357,-6.739419 2.321314,-2.770831 1.089329,3.401418 1.264552,3.120937 1.400186,-2.241255 0.14512,-5.734334 0.302147,-5.934756 2.438372,-3.110411 1.746078,2.308532 2.300586,2.469963 2.356617,0.68605 0.06517,-2.073604 0.240766,-2.073604 1.580852,0 1.005051,1.555205 1.515518,1.684802 1.531396,0.388801 0.01264,-1.069204 0.898612,-1.769046 1.967816,-1.555205 1.219811,0.243973 1.793292,-1.059591 1.539454,-3.499212 -0.378207,-3.634719 -0.259768,-3.584048 1.81769,0.777603 l 2.222247,4.665615 0.306716,-6.220821 c 0.168691,-3.421451 0.626777,-4.996097 1.017959,-3.499212 0.391183,1.496885 1.337788,2.72161 2.103586,2.72161 0.765797,0 0.989528,-1.049764 0.497184,-2.332808 -0.799064,-2.082328 1.703013,-3.153597 5.952437,-2.548564 0.589393,0.08398 1.514585,-1.243056 2.055981,-2.948825 0.541387,-1.705778 1.633792,-2.700021 2.427583,-2.209431 0.793777,0.490575 1.443231,-0.177148 1.443231,-1.483821 0,-1.61791 0.868193,-2.047477 2.721609,-1.346604 1.850743,0.699857 1.22869,-0.734431 -1.944007,-4.482384 -2.566088,-3.031357 -5.190497,-5.224741 -5.832019,-4.874217 -1.545952,0.844744 -1.475934,-0.702671 0.177633,-3.925275 1.883164,-3.670095 3.303115,-16.010775 1.730399,-15.038772 -0.71241,0.440317 -1.68922,-0.440658 -2.170697,-1.9576 -0.481482,-1.516977 -3.331216,-6.487116 -6.332796,-11.044774 -6.235027,-9.4674 -6.268648,-9.57038 -3.124616,-9.57038 1.283044,0 2.332808,-0.69985 2.332808,-1.55521 0,-0.85536 -0.699843,-1.5552 -1.555206,-1.5552 -2.185282,0 -1.946869,-4.27587 0.279792,-5.01809 1.00925,-0.33641 1.44827,-1.61946 0.975614,-2.85121 -1.392254,-3.62814 -0.734091,-5.3858 1.809044,-4.83118 1.91071,0.4167 1.996261,0.12602 0.434777,-1.47744 -3.097128,-3.18031 -2.402418,-4.19986 5.637945,-8.27422 10.206409,-5.17198 12.15978,-10.57647 6.489828,-17.9558 -2.144269,-2.79073 -2.512916,-4.40694 -1.330197,-5.83202 1.237803,-1.49148 0.792032,-1.97141 -1.831113,-1.97141 -2.364087,0 -3.196306,-0.70604 -2.615685,-2.2191 0.990291,-2.58065 -2.532997,-6.07848 -4.408871,-4.37703 -0.699094,0.6341 -0.858099,-0.003 -0.353323,-1.41546 1.135951,-3.17889 -1.847584,-4.10248 -17.529453,-5.42641 -6.415222,-0.54161 -12.363882,-1.50963 -13.219245,-2.15116 -0.855363,-0.64153 -4.692443,-1.68451 -8.526865,-2.31773 -3.834402,-0.63322 -7.711782,-2.16349 -8.616396,-3.40062 -1.291506,-1.76625 -4.804199,-2.12151 -16.35642,-1.65422 -8.091422,0.32727 -16.986172,1.42853 -19.766102,2.44718 -12.0692,4.42251 -14.01368,4.66795 -16.58785,2.09378 -2.28311,-2.28311 -2.94097,-2.24704 -7.91989,0.43429 -2.98648,1.60832 -5.44923,4.03874 -5.47278,5.40093 -0.0233,1.3622 -2.49827,4.22632 -5.49939,6.36473 -7.36759,5.24967 -11.86982,13.37441 -17.66688,31.88171 -2.67927,8.55363 -5.90163,18.79527 -7.16081,22.7592 -2.95502,9.30251 -2.94312,12.38614 0.0433,11.24011 1.28304,-0.49235 2.3328,-0.12048 2.3328,0.82642 0,2.667686 9.29024,2.082821 10.33927,-0.65091 0.69058,-1.79963 1.41723,-1.95189 3.00931,-0.63057 3.15537,2.618717 5.65222,1.0793 7.89376,-4.86684 1.70574,-4.52481 1.99536,-4.75005 1.87901,-1.46132 -0.28456,8.04322 0.12752,8.60542 7.59396,10.36049 7.98117,1.876059 9.78048,1.519518 6.89474,-1.366223 -2.02354,-2.023537 -2.53196,-13.998887 -0.67392,-15.873487 0.64153,-0.64724 1.92935,1.51061 2.86183,4.79522 1.59448,5.61639 2.13963,6.0356 9.15495,7.03989 4.10274,0.58733 8.10262,1.71098 8.88862,2.49699 0.78601,0.786 4.20466,0.92155 7.59701,0.30122 3.39234,-0.62033 6.48723,-0.61118 6.87754,0.0204 0.39031,0.63153 3.528477,1.598979 6.973718,2.149896 3.445246,0.550917 9.928965,3.256692 14.408248,6.012827 4.479302,2.756135 9.374233,4.80277 10.87765,4.548076 3.495402,-0.592164 3.500816,1.139839 0.01264,3.788325 -2.516677,1.910428 -2.454361,2.069725 0.827559,2.115468 1.952031,0.02722 5.976124,-0.964602 8.942431,-2.203993 2.966291,-1.239407 5.393267,-1.643605 5.393267,-0.898224 0,1.758174 -8.063589,4.268946 -17.884866,5.568865 -4.276814,0.56606 -11.059279,2.070522 -15.07216,3.343239 -4.87936,1.547522 -10.288388,2.007989 -16.329657,1.39012 -4.96844,-0.508148 -11.22789,-0.931927 -13.90991,-0.941754 -2.68201,-0.0092 -5.74203,-1.060884 -6.80005,-2.335719 -1.05859,-1.274826 -2.88831,-2.317873 -4.06662,-2.317873 -1.17831,0 -2.14238,-1.049764 -2.14238,-2.332808 0,-1.283045 -0.69984,-2.332808 -1.5552,-2.332808 -0.85537,0 -1.55521,-1.749606 -1.55521,-3.888014 0,-3.619351 -0.5277,-3.888008 -7.63662,-3.888008 h -7.63661 l -6.36023,10.070712 c -3.49813,5.538898 -6.36024,10.787716 -6.36024,11.66404 0,1.957041 -9.28013,2.070226 -12.31357,0.150223 -3.46872,-2.195561 -10.6447,20.900234 -9.69383,31.199455 0.54431,5.895628 15.10337,4.416054 14.88549,-1.512748 -0.13292,-3.617719 1.59985,-4.44902 3.3548,-1.609448 0.6996,1.13197 4.05363,1.444129 9.48896,0.883152 6.19896,-0.639777 10.03717,-0.137781 14.61431,1.911488 6.30751,2.823913 13.87836,2.649152 13.87836,-0.320421 0,-0.898208 0.35308,-1.280031 0.78462,-0.84849 0.43152,0.431521 0.0204,2.977426 -0.91411,5.65754 -1.3242,3.798623 -2.86242,5.091261 -6.97706,5.863173 -2.90308,0.544613 -8.26544,3.581715 -11.91634,6.74909 -8.7185,7.563833 -16.46882,10.822397 -18.46115,7.761845 -0.78488,-1.205707 -1.10362,-3.591873 -0.70833,-5.302599 4.24607,-18.375917 2.20347,-20.41325 -5.38818,-5.374274 -5.14331,10.188815 -6.30953,17.2571797 -2.29801,13.927903 1.93837,-1.608704 2.33281,-1.421768 2.33281,1.105581 0,4.4160541 1.47139,5.227497 5.23268,2.8857321 4.50439,-2.8044091 25.59703,-2.0082561 37.22975,1.405264 4.96403,1.4566539 10.21285,2.1860306 11.66404,1.6208204 2.35208,-0.9160937 2.25863,-1.3376467 -0.86069,-3.8830026 -3.75685,-3.0656059 -4.43319,-4.6895999 -1.95303,-4.6895999 1.98734,0 15.56108,13.34207692 15.56108,15.2954925 0,3.0136768 -5.34688,3.5557874 -7.39845,0.7501047 -1.18916,-1.62624415 -4.11987,-2.82851018 -7.03951,-2.88784126 -2.75119,-0.0558319 -11.8053,-0.67152304 -20.12024,-1.36805094 -18.5236,-1.5517061 -26.09487,-0.4396419 -26.09487,3.8327694 0,2.6282532 1.10574,3.0422635 8.16483,3.0570671 4.49066,0.00923 10.82351,0.4564527 14.07301,0.9934505 5.66566,0.9362482 5.86568,1.1749431 4.87275,5.814898 -0.56949,2.661219 -1.23603,5.062582 -1.48118,5.336391 -1.3402,1.496763 -23.31994,0.209758 -23.85547,-1.396837 -0.85412,-2.562356 -6.14019,-7.6546138 -7.94595,-7.6546138 -0.82852,0 -1.10356,1.0497636 -0.61121,2.3328078 0.49235,1.283045 1.91137,2.332808 3.15338,2.332808 1.31092,0 1.79271,0.753186 1.14853,1.795499 -0.68753,1.112439 -0.42662,1.373344 0.68582,0.685817 2.36406,-1.461067 2.31234,1.045379 -0.0708,3.428464 -1.45153,1.451522 -1.45153,1.866247 0,1.866247 1.02643,0 1.92149,-0.874803 1.98902,-1.944007 0.098,-1.551672 0.28091,-1.552265 0.90624,-0.0031 0.43089,1.067604 -0.73011,4.390096 -2.58001,7.383307 -3.94873,6.389173 -3.13511,13.828541 1.80132,16.470431 3.77527,2.02046 29.86598,5.705689 41.95918,5.926606 5.39689,0.09861 11.08212,-0.897057 14.77445,-2.587439 z m 37.883559,-21.53678 c 0,-1.638127 8.080133,-30.8512582 8.922242,-32.2577568 1.165972,-1.9473792 3.441966,2.267674 3.658655,6.7756553 0.152264,3.1671464 0.567013,2.7346292 2.237099,-2.332808 1.127616,-3.4214516 2.050757,-4.8211364 2.051428,-3.1104105 0.0014,3.6806606 -4.136958,15.0060689 -4.309459,11.7936368 -0.06503,-1.2117527 -0.502303,-1.8192159 -0.971615,-1.3499181 -0.469332,0.4693317 -0.376748,2.7519795 0.205676,5.0725985 0.777525,3.0979208 1.41132,3.6633638 2.384674,2.1275208 1.598503,-2.5222028 1.856074,0.283874 0.379324,4.132239 -0.79295,2.066386 -1.260042,2.170775 -2.308998,0.516002 -1.055314,-1.664813 -1.324365,-1.613788 -1.362594,0.258407 -0.04228,2.073604 -0.223026,2.073604 -1.626263,0 -1.183123,-1.748347 -1.340398,-1.303791 -0.627773,1.774349 0.522967,2.258921 0.24266,4.544825 -0.622889,5.079786 -3.205546,1.981128 -3.251453,-2.160165 -0.135789,-12.247572 1.761003,-5.7014603 2.972726,-11.89421 2.692726,-13.7616519 -0.280617,-1.8714563 -2.501747,3.75925676 -4.948804,12.5454668 -3.85238,13.8320101 -5.617664,18.5407251 -5.617664,14.9844661 z m 10.041912,-1.76281 c 0.464521,-1.210446 0.844525,-2.534795 0.844525,-2.942993 0,-0.408193 0.699843,-0.30968 1.555206,0.218992 2.418174,1.494509 1.829917,4.924825 -0.844521,4.924825 -1.430186,0 -2.058533,-0.889188 -1.55521,-2.200805 z m -36.520764,-3.873006 -3.737275,-3.481808 5.938819,-0.96533 c 5.424147,-0.881661 8.639981,-3.301842 8.701446,-6.5485034 0.01264,-0.6920031 -0.727695,-0.793733 -1.646199,-0.2260393 -0.933575,0.5769665 -0.80339,-0.3556074 0.295197,-2.1147536 1.594819,-2.5536957 1.574991,-3.6170965 -0.105122,-5.64155581 -1.734909,-2.09044379 -1.719746,-2.36080159 0.0936,-1.66840479 1.537009,0.5868713 2.21278,-0.5455514 2.332419,-3.908576 0.0972,-2.7311251 -0.534976,-4.5003611 -1.493775,-4.1807661 -2.082463,0.694166 -9.647988,-5.937429 -13.810679,-12.10581 -1.822838,-2.701144 -0.473026,-1.718905 3.205807,2.332808 3.494901,3.849133 6.394922,6.298581 6.444489,5.443218 0.04957,-0.855363 0.768529,-0.505441 1.597702,0.777603 1.333573,2.063558 1.510323,2.058611 1.531396,-0.04277 0.01264,-1.306572 -0.909674,-3.75602 -2.050587,-5.443219 -1.140986,-1.687193 -2.542387,-4.467327 -3.114299,-6.178053 -0.953807,-2.853068 -0.867775,-2.889712 1.039864,-0.442942 1.426181,1.829267 2.582817,2.164379 3.680763,1.066439 1.097955,-1.097961 2.453054,-0.749085 4.312365,1.110212 2.089462,2.089482 2.485048,4.163285 1.72483,9.042416 -0.542548,3.482119 -1.142765,11.9981897 -1.333822,18.9246075 -0.47808,17.3326705 -5.101647,22.1751275 -13.606977,14.2512165 z m 42.908493,0.827263 c -0.843981,-2.216479 -0.665346,-2.395109 0.870604,-0.870604 1.062856,1.054959 1.540693,2.309854 1.061865,2.788682 -0.478858,0.478809 -1.348441,-0.38433 -1.932469,-1.918078 z m 1.690975,-4.290331 c -1.186729,-3.092555 1.63177,-10.6335312 3.534763,-9.4574072 0.872985,0.5395347 0.89311,2.8114418 0.05083,5.7480242 -1.738097,6.060387 -2.414845,6.760492 -3.585666,3.709383 z M -134.69115,7.5918069 c 0,-0.7752845 1.39968,-1.409609 3.11041,-1.409609 1.71072,0 3.11041,0.2683215 3.11041,0.596222 0,0.3279053 -1.39969,0.9622347 -3.11041,1.4096041 -1.71073,0.4473645 -3.11041,0.179043 -3.11041,-0.5962171 z m 91.945726,-4.555522 c 2.354455,-6.9637913 3.680126,-8.3155903 2.252915,-2.29730548 -0.608533,2.56608868 -1.775763,5.34948828 -2.59385,6.18531878 -0.818067,0.835845 -0.664646,-0.9137609 0.340931,-3.8880133 z m 6.16533,1.5907077 c -0.04714,-1.2830443 0.527122,-3.3000824 1.275876,-4.48230087 1.063823,-1.67968493 1.599528,-1.39912583 2.450989,1.28360327 0.599298,1.8882039 0.6758,3.8469218 0.170003,4.3527086 -0.505782,0.5057819 -0.968796,-0.4217523 -1.028924,-2.0612059 -0.10449,-2.84839255 -0.168691,-2.84262371 -1.445889,0.129568 -0.8813,2.0509075 -1.365703,2.315793 -1.422079,0.7776026 z M -52.142489,0.60938708 c 0.07465,-1.81173638 0.443136,-2.18024228 0.939592,-0.9396113 0.44926,1.12265896 0.394001,2.46402352 -0.122716,2.98081822 -0.516794,0.5167753 -0.884348,-0.4017775 -0.816823,-2.04120692 z m 22.363745,-3.86188578 c -0.56381,-0.9122688 -0.691571,-1.992218 -0.283922,-2.3998859 0.407658,-0.4076582 1.15561,0.3387432 1.662126,1.6586751 1.051595,2.7404418 0.155374,3.22247766 -1.378223,0.7412108 z m -3.578513,-3.0069457 c 0,-2.1384073 0.352983,-3.0132102 0.784431,-1.9440066 0.431424,1.0692036 0.431424,2.8188096 0,3.8880132 -0.431423,1.0692037 -0.784431,0.1944007 -0.784431,-1.9440066 z m 9.963267,-3.566285 c 0.584029,-1.5337776 1.453636,-2.3969166 1.932469,-1.9180836 0.478858,0.478858 9.97e-4,1.733729 -1.061865,2.7886875 -1.53595,1.5245046 -1.714579,1.3458747 -0.870604,-0.8706039 z m -78.87882,-5.7696266 c -7.79652,-6.68298 -25.32327,-31.389375 -24.34647,-34.31977 0.32698,-0.980868 3.12417,1.966834 6.21603,6.550491 3.09185,4.583642 9.81969,12.622639 14.95076,17.864439 14.77632,15.095211 16.880065,21.6484573 3.17968,9.90484 z m 45.464705,2.207895 c 0.07465,-1.811736 0.443136,-2.180242 0.939592,-0.939611 0.44926,1.122659 0.394001,2.464024 -0.122716,2.980818 -0.516794,0.516776 -0.884348,-0.401777 -0.816822,-2.041207 z m 59.7526203,-0.64801 c -1.6775659,-2.714363 0.9834195,-4.951151 4.7619317,-4.002802 2.701037,0.677914 4.681712,-0.195664 7.648082,-3.373191 3.868617,-4.14402 10.140468,-20.892677 10.140468,-27.079624 0,-5.225271 -5.173332,-0.776421 -7.819529,6.724475 -1.644099,4.660371 -3.375446,6.880398 -5.618942,7.204921 -1.783461,0.257969 -4.0233596,2.182546 -4.9775898,4.276814 -1.1571165,2.539607 -3.0103477,3.807765 -5.5644905,3.807765 -5.3753824,0 -6.6579116,-3.052776 -2.5760615,-6.131723 2.7615635,-2.083056 3.2232602,-3.497253 2.3420323,-7.173836 -0.60366754,-2.518606 -1.87590323,-5.588441 -2.8271591,-6.821845 -1.3202478,-1.711829 -1.2669043,-1.964535 0.2254075,-1.067833 1.1979115,0.719793 2.3571907,0.126603 2.9935661,-1.531756 0.9562812,-2.492027 1.131582,-2.469044 2.2125128,0.29024 1.0538557,2.690146 1.1851296,2.71293 1.2832485,0.222686 0.060167,-1.525714 2.2329783,-4.849966 4.8285528,-7.387225 4.6956169,-4.590125 7.2226409,-6.023912 5.3895979,-3.058 -0.528648,0.855363 -0.552628,1.555205 -0.05336,1.555205 0.499342,0 1.57309,-1.749606 2.386103,-3.888013 1.176994,-3.095728 2.556461,-3.888013 6.769498,-3.888013 2.910207,0 6.126264,1.006082 7.146775,2.235719 2.397626,2.888979 0.513359,16.358286 -2.447363,17.494427 -1.175721,0.451155 -2.137678,2.857845 -2.137678,5.348147 0,4.97081 -6.488395,18.784032 -11.414026,24.299475 -3.219771,3.605325 -10.9345854,4.787014 -12.6916563,1.944007 z m -73.7172263,-1.944006 c 0.08524,-1.069204 0.715346,-3.693613 1.40018,-5.83202 1.111258,-3.469897 1.261831,-3.260828 1.400181,1.944006 0.08524,3.207611 -0.544818,5.83202 -1.400181,5.83202 -0.855363,0 -1.485439,-0.874803 -1.40018,-1.944006 z m 43.513507,-0.518394 c 0.07465,-1.811737 0.443136,-2.180242 0.939591,-0.939611 0.44926,1.122659 0.394002,2.464023 -0.122715,2.980818 -0.516795,0.516775 -0.884348,-0.401778 -0.816823,-2.041207 z m 3.11041,-1.555205 c 0.07465,-1.811737 0.443136,-2.180243 0.939597,-0.939612 0.44926,1.122659 0.394001,2.464024 -0.122716,2.980819 -0.516794,0.516775 -0.884352,-0.401778 -0.816827,-2.041207 z m 3.110411,0 c 0.07465,-1.811737 0.443136,-2.180243 0.939596,-0.939612 0.44926,1.122659 0.394002,2.464024 -0.122715,2.980819 -0.516795,0.516775 -0.884353,-0.401778 -0.816828,-2.041207 z m -73.217432,-3.758421 c -1.827216,-2.566089 -2.972289,-4.665616 -2.544608,-4.665616 0.427682,0 2.272597,2.099527 4.099813,4.665616 1.827215,2.566088 2.972289,4.665616 2.544607,4.665616 -0.427681,0 -2.272597,-2.099528 -4.099812,-4.665616 z m 28.296882,-0.777603 c 0.03159,-2.566089 0.380248,-3.42758 0.774556,-1.914409 0.394293,1.513166 0.368389,3.612693 -0.05754,4.665616 -0.426029,1.052918 -0.748632,-0.185118 -0.716935,-2.751207 z m 48.03096,-9.460824 c 0.07465,-1.811736 0.443137,-2.180242 0.939597,-0.939611 0.44926,1.122659 0.394002,2.464023 -0.122715,2.980818 -0.516795,0.516775 -0.884353,-0.401778 -0.816828,-2.041207 z M -144.02238,-54.470808 c 0,-0.855363 0.74114,-1.555206 1.64698,-1.555206 0.90585,0 1.21447,0.699843 0.68582,1.555206 -0.52864,0.855362 -1.26979,1.555205 -1.64699,1.555205 -0.37718,0 -0.68581,-0.699843 -0.68581,-1.555205 z m -20.09489,-11.793632 c 0.0746,-1.811737 0.44313,-2.180243 0.9396,-0.939612 0.44926,1.122659 0.394,2.464024 -0.12277,2.980819 -0.51678,0.51678 -0.88435,-0.401778 -0.81682,-2.041207 z m 114.184805,-44.19375 c 0.528649,-0.85537 1.269796,-1.55521 1.646997,-1.55521 0.377186,0 0.685811,0.69984 0.685811,1.55521 0,0.85536 -0.741147,1.5552 -1.646991,1.5552 -0.905844,0 -1.21446,-0.69984 -0.685817,-1.5552 z m -11.664039,-7.77603 c -2.073604,-1.34007 -2.073604,-1.493 0,-1.37637 1.283044,0.0722 4.082414,0.69153 6.220821,1.37637 l 3.888013,1.24516 -3.888013,0.13122 c -2.138407,0.0722 -4.937777,-0.54721 -6.220821,-1.37638 z m -50.217186,-3.11041 c -0.44737,-1.71073 -0.47901,-3.11041 -0.0703,-3.11041 1.60802,0 4.98154,4.35221 4.07567,5.25807 -1.7603,1.76028 -3.18292,0.99747 -4.00539,-2.14766 z m 66.831614,91.465505 c -0.496451,-1.240631 -0.864971,-0.872125 -0.939592,0.939612 -0.06751,1.639434 0.300009,2.557982 0.816828,2.041206 0.516775,-0.516794 0.572019,-1.858159 0.122715,-2.980818 z m 56.062808,-45.779334 c -0.589379,-3.083175 -0.06362,-4.267746 2.151515,-4.846996 3.103757,-0.811647 4.083566,-3.514254 1.274073,-3.514254 -3.461377,0 -7.52872,3.251686 -6.838272,5.466935 0.3958483,1.270001 1.0476495,3.358855 1.448489,4.641899 1.236014,3.956428 2.790242,2.573617 1.964195,-1.747584 z m 31.521523,-0.768781 c 0,-0.855363 -0.699842,-1.122689 -1.555205,-0.594045 -0.855363,0.528648 -1.555206,1.661008 -1.555206,2.516371 0,0.855363 0.699843,1.122688 1.555206,0.594039 0.855363,-0.528643 1.555205,-1.661003 1.555205,-2.516365 z m -10.108834,0.183562 c 0.541911,-0.876839 -0.718257,-1.555205 -2.889027,-1.555205 -2.117617,0 -4.162634,-0.874803 -4.544485,-1.944007 -0.381852,-1.069203 -1.263896,-1.411893 -1.960069,-0.761535 -1.389202,1.297756 3.61991,5.687449 6.58018,5.766497 1.018723,0.02722 2.284752,-0.650387 2.813401,-1.50575 z m -45.878561,-1.555205 c 0,-0.855363 -0.308611,-1.555205 -0.685812,-1.555205 -0.377186,0 -1.118348,0.699842 -1.646996,1.555205 -0.528644,0.855363 -0.220013,1.555205 0.685816,1.555205 0.905844,0 1.646992,-0.699842 1.646992,-1.555205 z m 10.8864368,-5.535005 c 0,-1.333525 -0.7112537,-1.985001 -1.5805697,-1.44774 -0.8693112,0.53726 -1.1779417,1.628329 -0.6858116,2.424594 1.3331658,2.157133 2.2663813,1.754913 2.2663813,-0.976854 z M -163.46246,-86.352517 c 0,-4.786392 -7.60409,-4.323981 -8.28808,0.503998 -0.44528,3.142944 0.0619,3.548668 3.88801,3.110411 3.19528,-0.366003 4.40007,-1.355672 4.40007,-3.614409 z m 142.586411,0.440658 c -1.115952,-1.115952 -1.840323,-1.207773 -1.840323,-0.233281 0,2.075859 1.839205,3.915059 2.87713,2.87713 0.44197,-0.441921 -0.02479,-1.631658 -1.036807,-2.643849 z m -79.881221,-1.607042 c -0.62252,-4.38322 -8.11373,-5.851038 -9.63457,-1.887786 -1.44671,3.770051 0.189,5.386997 5.44954,5.386997 3.96585,0 4.60598,-0.535223 4.18503,-3.499211 z m 101.74749975,-4.07633 c -0.87220287,-2.357803 -1.780365,-2.803102 -3.49978535,-1.716062 -1.5486297,0.979051 -1.6744896,1.475876 -0.3779635,1.491768 1.0692036,0.01264 1.96528374,1.948376 1.99130427,4.300624 0.0388801,3.511517 0.31721328,3.81433 1.55577877,1.692252 0.82967286,-1.421506 0.97847196,-4.017362 0.33067553,-5.768582 z m 36.94640925,6.279545 c 0,-0.712814 -1.01899,-1.296016 -2.264398,-1.296016 -1.245423,0 -1.90396,0.583202 -1.463414,1.296016 0.440512,0.712795 1.459511,1.295996 2.264393,1.295996 0.804882,0 1.463419,-0.583201 1.463419,-1.295996 z M 23.289385,-87.1301 c 2.068443,0 3.760817,-0.699842 3.760817,-1.555205 0,-0.855363 -0.991443,-1.555206 -2.203215,-1.555206 -1.211753,0 -2.556199,-0.874803 -2.987628,-1.944006 -0.507774,-1.258409 -0.827724,-1.067974 -0.907195,0.539952 -0.06751,1.36617 -1.697428,3.312388 -3.621995,4.324919 -2.099824,1.104726 -2.359932,1.510741 -0.650406,1.015253 1.56684,-0.45412 4.54117,-0.825707 6.609622,-0.825707 z m -5.570415,-5.624599 c 0,-0.327906 -1.399684,-0.596217 -3.11041,-0.596217 -1.710726,0 -3.110411,0.634319 -3.110411,1.409604 0,0.775284 1.399685,1.043591 3.110411,0.596217 1.710726,-0.447365 3.11041,-1.081689 3.11041,-1.409604 z m -24.8832891,-0.596237 c 0,-0.855363 -0.308611,-1.555205 -0.6858115,-1.555205 -0.3771859,0 -1.1183481,0.699842 -1.6469964,1.555205 -0.528643,0.855358 -0.220013,1.555201 0.6858163,1.555201 0.9058439,0 1.6469916,-0.699843 1.6469916,-1.555201 z m 18.7230581,-6.220821 c 3.243847,0 4.100935,-2.277223 1.469246,-3.903693 -0.869311,-0.53727 -1.177941,-1.62833 -0.685811,-2.42459 1.217755,-1.97038 -1.43597,-1.81996 -6.2019111,0.35157 -2.8598378,1.30303 -3.5144092,2.32301 -2.3732141,3.69806 1.1400432,1.37365 0.6627361,2.137533 -1.7259523,2.762186 -2.8116556,0.735262 -2.98966343,1.202139 -1.19917016,3.145223 1.83890386,1.995639 2.45151866,1.911177 4.88479286,-0.673467 1.5301957,-1.625404 4.1546046,-2.955274 5.8320198,-2.955274 z m 24.822695,4.665616 c 0,-0.855363 -0.308611,-1.555205 -0.685816,-1.555205 -0.377186,0 -1.118349,0.699842 -1.646992,1.555205 -0.528648,0.855363 -0.220013,1.555205 0.685811,1.555205 0.905844,0 1.646997,-0.699842 1.646997,-1.555205 z m 11.337617,-1.557354 c 0.447656,-1.711906 0.179383,-2.720365 -0.596218,-2.241026 -0.7756,0.479343 -1.410167,1.879995 -1.410167,3.112563 0,3.218887 1.056762,2.759853 2.006385,-0.871537 z m -34.665696,0.0021 c 0,-0.855363 -1.008459,-1.555206 -2.241022,-1.555206 -1.2325635,0 -2.6735535,0.699843 -3.2022018,1.555206 -0.5286435,0.855362 0.4798294,1.555205 2.2410216,1.555205 1.7612072,0 3.2022022,-0.699843 3.2022022,-1.555205 z m 17.107258,-0.777603 c 0,-2.800282 -4.612448,-3.174802 -4.7884,-0.388801 -0.09827,1.555205 -0.279645,1.555205 -0.907199,0 -0.431424,-1.069204 -1.403977,-1.944007 -2.161221,-1.944007 -0.757229,0 -0.973966,1.049764 -0.481627,2.332808 0.492363,1.283044 2.569913,2.332808 4.616811,2.332808 2.2713,0 3.721626,-0.909095 3.721626,-2.332808 z m -58.633854,-2.281865 c -0.868913,-3.322667 -4.737311,-7.182427 -5.966531,-5.953207 -0.699876,0.69987 5.062456,9.012675 6.247459,9.012675 0.285526,0 0.159117,-1.37676 -0.280909,-3.059468 z m 13.532895,1.553071 c 0,-0.828521 -1.049763,-1.103564 -2.332807,-0.611215 -1.283045,0.492349 -2.332808,1.170229 -2.332808,1.506396 0,0.336168 1.049763,0.611216 2.332808,0.611216 1.283044,0 2.332807,-0.67788 2.332807,-1.506397 z m 3.863383,-4.741638 c -2.241226,-2.47652 -2.449701,-3.56376 -0.967556,-5.04591 1.039062,-1.03906 3.026818,-1.89733 4.4172347,-1.90726 1.3903973,-0.01 2.8506913,-1.0678 3.2450914,-2.35085 0.5557186,-1.80784 0.2807145,-1.92269 -1.2220366,-0.51034 -1.0665112,1.00237 -2.887331,1.45862 -4.0462554,1.01389 -1.2408641,-0.47618 -2.8628221,0.84995 -3.9452591,3.22562 -1.545515,3.39205 -1.387758,4.53186 0.991118,7.16048 1.556075,1.719451 3.1791502,2.776344 3.6068316,2.348662 0.4276815,-0.427681 -0.5079446,-2.198112 -2.0791686,-3.934292 z m -14.74982,0.80482 c 0,-1.28305 -0.67788,-2.33281 -1.506401,-2.33281 -0.828506,0 -1.103559,1.04976 -0.61121,2.33281 0.492359,1.28304 1.170229,2.332804 1.506401,2.332804 0.336167,0 0.61121,-1.049764 0.61121,-2.332804 z m 68.429038,1.44411 c 0,-0.48878 -1.083093,-1.97178 -2.40687,-3.29555 -3.0368,-3.0368 -4.86126,-1.51557 -2.026836,1.68997 2.124051,2.402157 4.433706,3.238552 4.433706,1.60558 z m -15.552053,-3.77427 c 0,-0.66674 -1.197916,-1.11506 -2.66203,-0.99626 -3.278873,0.26604 -4.650331,-5.13431 -1.767802,-6.96105 1.595704,-1.01125 1.404195,-1.33464 -0.801101,-1.35276 -2.338951,-0.0194 -2.76601,0.87637 -2.213353,4.6418 0.46729,3.1838 0.02916,4.66562 -1.37869,4.66562 -1.134911,0 -2.063461,0.55931 -2.063461,1.24291 0,0.68361 2.449448,0.95696 5.443219,0.60746 2.99377,-0.34949 5.443218,-1.18098 5.443218,-1.84772 z m 27.993695,1.55255 c 0,-0.85536 -0.741147,-1.5552 -1.646996,-1.5552 -0.905844,0 -1.21446,0.69984 -0.685812,1.5552 0.528644,0.85537 1.269792,1.55521 1.646992,1.55521 0.377186,0 0.685816,-0.69984 0.685816,-1.55521 z m -55.22227767,-6.26017 c -0.75550415,-2.38036 -1.56228143,-2.89598 -2.71994713,-1.73832 -1.1576462,1.15765 -1.0460943,2.3685 0.3761167,4.08215 2.59223074,3.12344 3.7208578,1.99481 2.34383529,-2.34383 z m 46.48653467,0.90317 c -0.474095,-1.23546 0.380102,-2.45827 2.01192,-2.8802 2.330276,-0.60251 2.228376,-0.76538 -0.571615,-0.91363 -1.874086,-0.0992 -3.800922,0.45631 -4.281869,1.23446 -1.213824,1.96402 0.719671,6.52693 2.341113,5.52482 0.728381,-0.45018 0.953574,-1.78461 0.500451,-2.96545 z m -29.366786,0.69139 c 0.528643,-0.85537 0.220013,-1.55521 -0.685817,-1.55521 -0.905843,0 -1.646991,0.69984 -1.646991,1.55521 0,0.85536 0.308611,1.5552 0.685811,1.5552 0.377186,0 1.118348,-0.69984 1.646997,-1.5552 z m -9.5489802,-5.80312 c -0.7798431,-2.98209 -1.1798419,-3.13031 -3.1448243,-1.16532 -1.856886,1.85689 -1.8957807,2.64182 -0.2220056,4.47987 2.6332591,2.89168 4.5073106,1.04671 3.3668154,-3.31455 z m 29.0761962,1.96897 c 1.813325,1.12069 10.799287,-3.56298 10.799287,-5.62881 0,-0.88388 -0.778084,-1.12616 -1.729077,-0.53842 -0.951008,0.58775 -2.339962,0.10415 -3.086602,-1.07462 -0.996157,-1.57274 -1.363852,-1.16351 -1.381333,1.53734 -0.01798,2.75765 -0.717805,3.49912 -2.791346,2.95688 -2.959774,-0.774 -7.070366,2.4463 -5.336205,4.18045 0.572286,0.57229 1.289824,0.29258 1.594552,-0.62157 0.304723,-0.91416 1.173543,-1.27922 1.930724,-0.81125 z m 20.130519,-1.70086 c 0,-1.33352 -0.699843,-1.99207 -1.555206,-1.46342 -0.855363,0.52865 -1.555205,1.61971 -1.555205,2.42459 0,0.80488 0.699842,1.46343 1.555205,1.46343 0.855363,0 1.555206,-1.09107 1.555206,-2.4246 z m -43.889138,-3.47968 c 1.267648,-3.63639 1.080212,-4.3819 -1.143873,-4.54943 -1.9492746,-0.14683 -2.6599597,1.01514 -2.6599597,4.34906 0,5.75569 1.8335727,5.85228 3.8038327,0.20038 z m -12.81190733,-0.21306 c -1.32660467,-2.14648 -5.50717147,-2.15535 -5.50717147,-0.0117 0,0.90584 0.6514949,1.24434 1.4477406,0.75223 0.7962651,-0.49212 1.9161101,-0.13696 2.4885472,0.78929 0.5724419,0.92622 1.39071314,1.33412 1.81839459,0.90644 0.42768146,-0.42769 0.31628988,-1.52401 -0.24752064,-2.43628 z m -7.06237677,-1.52907 c 0,-0.78408 -0.8299499,-1.70225 -1.844318,-2.04038 -1.0143829,-0.33811 -1.8893849,-3.37078 -1.9444539,-6.73922 -0.170343,-10.42052 -1.762747,-11.1883 -13.707288,-6.60911 -2.352248,0.90179 -4.276814,2.14222 -4.276814,2.75651 0,1.67208 7.795253,4.89826 9.415635,3.89681 1.669499,-1.03181 8.343988,2.25101 7.101938,3.49306 -1.181256,1.18126 1.908363,6.66793 3.7548097,6.66793 0.8252697,0 1.5004912,-0.64152 1.5004912,-1.4256 z m -16.2657029,-4.69177 c -0.563825,-0.91227 -1.769357,-1.65867 -2.678967,-1.65867 -1.031257,0 -0.913265,0.89235 0.313422,2.37039 2.133028,2.57014 4.039384,1.99658 2.365565,-0.71172 z m 44.376043,1.02406 c -0.192359,-1.85957 -2.325483,-1.49943 -2.99377,0.50544 -0.342145,1.02643 0.217729,1.58631 1.244164,1.24416 1.026436,-0.34214 1.813759,-1.12946 1.749606,-1.7496 z m 31.197715,-0.28908 c 4.458696,-1.93577 4.698785,-2.28094 1.622667,-2.3328 -1.985652,-0.0335 -4.660061,0.98889 -5.943105,2.27193 -2.907194,2.9072 -2.256637,2.91636 4.320438,0.0609 z m -68.670483,-1.65364 c -1.081986,-1.30371 -2.287518,-2.05011 -2.678963,-1.65867 -1.07852,1.07853 1.112827,4.02907 2.992371,4.02907 1.031256,0 0.91326,-0.89235 -0.313423,-2.3704 z m 17.13845436,0.81519 c 0,-0.85536 -0.69984238,-1.5552 -1.55520529,-1.5552 -0.85536287,0 -1.55520527,0.69984 -1.55520527,1.5552 0,0.85537 0.6998424,1.55521 1.55520527,1.55521 0.85536291,0 1.55520529,-0.69984 1.55520529,-1.55521 z m 32.65931564,0 c 0,-0.85536 -0.699842,-1.5552 -1.555205,-1.5552 -0.855363,0 -1.555205,0.69984 -1.555205,1.5552 0,0.85537 0.699842,1.55521 1.555205,1.55521 0.855363,0 1.555205,-0.69984 1.555205,-1.55521 z m -37.2953826,-2.36841 c 1.6435118,-1.98031 1.5473078,-2.20789 -0.5871824,-1.38881 -1.4040247,0.53877 -2.5527771,1.60456 -2.5527771,2.36841 0,1.99993 0.9002646,1.71907 3.1399595,-0.9796 z m 14.2953406,-9.68443 c 1.199126,-1.44967 0.76866,-1.944 -1.6928269,-1.944 -2.4840808,0 -3.3008309,-0.96204 -3.3008309,-3.88802 0,-2.1384 -0.8942236,-3.88801 -1.9871781,-3.88801 -2.1491674,0 -7.9957138,-6.08756 -6.899435,-7.18385 0.3670284,-0.36703 1.55261,0.39935 2.63459552,1.70305 1.08199034,1.30371 2.68986848,2.37039 3.57306958,2.37039 0.8832011,0 0.339132,-1.39969 -1.2090652,-3.11041 -1.54818742,-1.71073 -2.09226141,-3.11041 -1.20906033,-3.11041 0.88320113,0 2.47064283,1.04205 3.52765763,2.31568 1.0570244,1.27363 2.542401,1.93217 3.3008454,1.46342 2.446508,-1.51203 1.4837582,-2.97344 -3.3759473,-5.12455 -2.615204,-1.15761 -4.47841774,-2.38125 -4.14047163,-2.7192 1.10319945,-1.1032 10.65762223,4.3497 11.50902023,6.56844 0.941351,2.45312 3.607206,2.94142 3.607206,0.66073 0,-0.8256 -2.172034,-3.97489 -4.8267207,-6.99842 -2.6547063,-3.02354 -4.1565826,-5.49733 -3.3375046,-5.49733 1.8219084,0 7.7566203,5.46643 12.3826413,11.4056 3.364702,4.31982 7.69189,4.39221 6.045253,0.10114 -0.459174,-1.19652 -0.07125,-2.17549 0.862002,-2.17549 1.208084,0 1.197912,-0.60116 -0.03548,-2.0871 -0.95267,-1.14791 -1.271643,-2.54759 -0.708828,-3.11041 0.562984,-0.56285 0.132114,-1.02333 -0.957322,-1.02333 -1.089436,0 -1.620757,0.93826 -1.180697,2.08504 0.440075,1.14677 0.175738,3.07133 -0.587401,4.27681 -1.172839,1.85269 -1.411548,1.83087 -1.542948,-0.14104 -0.256075,-3.84289 -11.9839166,-12.80115 -20.55941089,-15.70424 -4.40992551,-1.49291 -8.51462261,-2.40746 -9.12156091,-2.03236 -0.6069334,0.3751 -0.105754,2.59474 1.1138089,4.9325 2.6088277,5.00093 2.8665058,9.12076 0.6559224,10.48697 -0.8693112,0.53727 -1.2232613,1.555 -0.7865451,2.26163 0.8929357,1.44479 -3.8458334,3.69218 -5.1130924,2.42492 -0.447802,-0.44781 0.118925,-0.81422 1.259386,-0.81422 1.140481,0 1.707212,-0.36639 1.259391,-0.81421 -1.108099,-1.1081 -5.925007,0.84067 -5.925007,2.39707 0,0.68755 2.97433,2.72742 6.6096226,4.53306 6.4619412,3.20962 13.5021563,11.47772 16.1170445,18.92802 1.2796569,3.64594 1.3204956,3.62545 1.870042,-0.93825 0.3089998,-2.56609 1.2854112,-5.54042 2.1698229,-6.60963 z m 6.670387,8.94243 c 0.528643,-0.85536 0.220013,-1.5552 -0.685817,-1.5552 -0.905843,0 -1.646991,0.69984 -1.646991,1.5552 0,0.85537 0.308611,1.55521 0.685811,1.55521 0.377186,0 1.118348,-0.69984 1.646997,-1.55521 z m 17.475919,-7.14817 c -0.428604,-0.42855 -2.721876,-0.29165 -5.096208,0.30424 -3.980145,0.99895 -4.100999,1.2414 -1.548999,3.10746 2.30147,1.68288 3.160347,1.6316 5.096189,-0.30423 1.280541,-1.28053 1.977584,-2.6789 1.549018,-3.10747 z m -12.773275,1.8901 c 1.181208,-1.18122 1.714424,-2.58091 1.184911,-3.11041 -1.760274,-1.76028 -3.182898,-0.99748 -4.005368,2.14766 -0.955071,3.65219 -0.145412,3.92858 2.820457,0.96275 z m -5.480247,-2.51795 c 0,-0.85537 -0.699842,-1.55521 -1.555205,-1.55521 -0.855363,0 -1.555205,0.69984 -1.555205,1.55521 0,0.85536 0.699842,1.5552 1.555205,1.5552 0.855363,0 1.555205,-0.69984 1.555205,-1.5552 z m -23.3280841,-1.55521 c 0,-0.85536 -1.0910688,-1.5552 -2.4245942,-1.5552 -1.3335257,0 -1.9920627,0.69984 -1.4634187,1.5552 0.528648,0.85536 1.6197168,1.55521 2.4245987,1.55521 0.804882,0 1.4634142,-0.69985 1.4634142,-1.55521 z m 45.1009581,-0.56526 c 0,-1.27088 -1.402003,-1.97351 -3.499212,-1.75369 -5.131774,0.53791 -5.385209,0.84021 -1.944006,2.31895 4.474573,1.92279 5.443218,1.8222 5.443218,-0.56526 z m -17.722857,-6.78957 c -1.580895,-1.58089 -2.885294,0.79921 -1.588205,2.89794 0.979823,1.58541 1.346152,1.58663 1.872934,0.006 0.360176,-1.08053 0.232066,-2.38742 -0.284748,-2.90421 z m 13.329135,-2.3652 c -0.3437,-2.35225 -1.292497,-4.27682 -2.108421,-4.27682 -0.815924,0 -1.039251,1.39969 -0.496281,3.11041 0.769905,2.42575 0.279451,3.11041 -2.228006,3.11041 -1.768375,0 -3.215212,0.59941 -3.215212,1.33201 0,0.7326 1.951394,1.25748 4.336423,1.1664 3.816162,-0.14575 4.261452,-0.67871 3.711497,-4.44241 z m 9.059338,3.49921 c 0,-0.85536 -1.049763,-1.55521 -2.332808,-1.55521 -1.283044,0 -2.332808,0.69985 -2.332808,1.55521 0,0.85536 1.049764,1.55521 2.332808,1.55521 1.283045,0 2.332808,-0.69985 2.332808,-1.55521 z m -12.441642,-19.44007 c 0,-1.28304 -1.027806,-2.3328 -2.284009,-2.3328 -1.391272,0 -1.934097,0.91179 -1.388813,2.3328 0.492364,1.28305 1.52015,2.33281 2.284004,2.33281 0.763839,0 1.388818,-1.04976 1.388818,-2.33281 z m -4.312322,-10.66809 c 0.909824,0.56231 1.265315,0.0561 0.820463,-1.16827 -0.431715,-1.18827 -1.548003,-1.99361 -2.480616,-1.78966 -0.932608,0.20397 -3.644497,-0.32499 -6.02642,-1.17548 -3.570032,-1.27467 -3.904061,-1.20322 -1.901579,0.40679 3.726787,2.99634 4.88367,7.37325 2.219137,8.39572 -1.263696,0.48494 -1.862139,1.58636 -1.329856,2.44761 0.532269,0.86125 2.346061,-0.61092 4.030611,-3.2715 1.684569,-2.66058 3.785278,-4.39092 4.66826,-3.84521 z m 1.201911,3.4861 c 0,-0.85536 -0.699842,-1.12268 -1.555205,-0.59403 -0.855363,0.52864 -1.555205,1.66101 -1.555205,2.51637 0,0.85537 0.699842,1.12268 1.555205,0.59404 0.855363,-0.52865 1.555205,-1.66101 1.555205,-2.51638 z m -15.552053,-0.41519 c 0,-1.52135 -7.5822671,-5.3158 -12.46445985,-6.23768 l -5.42040565,-1.02351 6.99842386,3.85969 c 6.38643594,3.52218 10.88644164,4.92821 10.88644164,3.4015 z m 19.22487,-1.73405 c -0.492364,-1.28304 -1.170229,-2.33281 -1.506401,-2.33281 -0.336168,0 -0.611211,1.04977 -0.611211,2.33281 0,1.28305 0.67788,2.33281 1.506401,2.33281 0.828507,0 1.10356,-1.04976 0.611211,-2.33281 z m -16.519561,-4.37798 c -1.060247,-2.28326 -3.111125,-4.15684 -4.5575291,-4.16352 -1.4464041,-0.007 -3.0623547,-0.71197 -3.591003,-1.56733 -0.5286435,-0.85537 -2.3608454,-1.55521 -4.0715712,-1.55521 -1.91571647,0 -2.69333856,-0.67484 -2.02455168,-1.75696 0.68455277,-1.10763 0.28737278,-1.39539 -1.07461772,-0.77861 -1.1882692,0.5381 -3.3852153,1.41036 -4.8821004,1.93835 -4.0443409,1.42656 -3.2930695,3.70763 1.221118,3.70763 2.1685005,0 5.63693392,1.11009 7.707646,2.46686 2.0706927,1.35678 4.4019892,2.07312 5.1806513,1.59188 0.7786621,-0.48124 2.6713908,0.51249 4.2060668,2.20829 3.590226,3.96716 4.322227,3.15539 1.885891,-2.09138 z m 1.960307,-11.95167 c 0,-0.85537 -0.699842,-1.55521 -1.555205,-1.55521 -0.855363,0 -1.555205,0.69984 -1.555205,1.55521 0,0.85536 0.699842,1.5552 1.555205,1.5552 0.855363,0 1.555205,-0.69984 1.555205,-1.5552 z m -150.831105,-2.72161 c 0.0204,-2.32588 0.243,-2.38242 1.53139,-0.3888 1.26335,1.95489 1.51143,1.85335 1.53139,-0.62677 0.0224,-2.74947 0.23474,-2.71639 2.99476,0.46593 2.04859,2.36204 3.31751,2.86477 4.08726,1.61929 0.61397,-0.99343 0.35313,-2.27791 -0.57966,-2.85441 -2.2931,-1.41718 -0.43962,-7.93528 2.25647,-7.93528 1.18329,0 2.17622,-0.8748 2.20653,-1.944 0.0301,-1.06921 1.05528,-0.1944 2.2777,1.944 1.34513,2.35307 2.25375,2.96704 2.30151,1.55521 0.0702,-2.07361 0.25238,-2.07361 1.63987,0 1.34737,2.01362 1.88465,1.90723 3.92679,-0.7776 1.30121,-1.71073 3.73736,-4.69039 5.41366,-6.62146 1.67631,-1.93107 3.04783,-4.60547 3.04783,-5.9431 0,-2.19493 -0.2397,-2.19239 -2.45819,0.0262 -1.35201,1.352 -3.02878,2.10554 -3.72615,1.67454 -0.69738,-0.43101 -3.23341,0.23604 -5.63563,1.48233 -5.38783,2.79523 -7.36242,1.36024 -2.56568,-1.86458 1.92457,-1.29387 3.49921,-3.39852 3.49921,-4.67699 0,-1.55845 1.02455,-2.05658 3.10886,-1.51152 1.70988,0.44714 3.50078,0.17884 3.9798,-0.59622 0.85016,-1.3756 -1.6441,-2.12551 -4.75585,-1.42987 -0.85536,0.19123 -2.60497,0.50949 -3.88801,0.70726 -1.28305,0.19776 -3.82065,4.04695 -5.63912,8.55375 -1.81846,4.5068 -3.75444,7.46906 -4.30217,6.5828 -0.54774,-0.88625 -0.23693,-2.08044 0.69071,-2.65374 0.92763,-0.57331 1.2867,-2.0845 0.79793,-3.3582 -0.48876,-1.2737 0.33831,-4.45189 1.83799,-7.06266 2.06168,-3.5892 2.25018,-4.91484 0.77295,-5.43573 -1.07454,-0.37888 -1.55812,-1.32895 -1.07463,-2.11126 1.39144,-2.25139 -0.40357,-1.65633 -3.08141,1.02152 -1.34415,1.34414 -2.4439,1.69407 -2.4439,0.77761 0,-0.91646 -0.69984,-1.6663 -1.5552,-1.6663 -0.85536,0 -1.55521,0.97489 -1.55521,2.16642 0,1.19153 -1.12768,2.59915 -2.50596,3.12805 -1.79316,0.6881 -2.24941,0.29305 -1.60402,-1.38882 1.23324,-3.21377 -0.26025,-2.95378 -6.12779,1.06672 -3.81501,2.61409 -5.1835,4.88197 -5.82303,9.65001 -0.4598,3.42807 -0.47113,6.82322 -0.0253,7.54479 1.42861,2.31153 5.08626,-2.09697 6.06401,-7.30885 0.81119,-4.32401 1.48529,-4.94387 4.70677,-4.32804 4.90699,0.93803 5.48164,8.13219 0.64958,8.13219 -2.10332,0 -3.11041,1.0368 -3.11041,3.20219 0,1.76121 -0.69984,2.76967 -1.5552,2.24103 -1.8096,-1.1184 -1.91703,0.13491 -0.5832,6.80402 1.02165,5.10825 5.2317,6.81571 5.27263,2.13841 z m -8.57744,-20.60647 c 0.52864,-0.85537 1.26978,-1.55521 1.64698,-1.55521 0.37719,0 0.68583,0.69984 0.68583,1.55521 0,0.85536 -0.74115,1.5552 -1.647,1.5552 -0.90584,0 -1.21446,-0.69984 -0.68581,-1.5552 z m 142.85462411,19.82487 c 0.46320818,-1.77127 0.19498386,-4.42977 -0.59603243,-5.90779 -1.10571698,-2.06605 -0.72772428,-2.8731 1.63505051,-3.49098 3.30605541,-0.86455 3.76122021,-2.2684 1.75870391,-5.42436 -1.8663873,-2.94141 -6.3382392,-0.59102 -7.4722949,3.92741 -0.693607,2.76355 -0.230705,4.34198 1.5686287,5.34895 1.4039275,0.78568 2.55260217,2.12835 2.55260217,2.98371 0,0.98562 -0.93528107,1.03179 -2.55369087,0.12607 -2.6013141,-1.45577 -5.1741388,-1.17492 -14.1790882,1.54784 -7.38186,2.232 -5.170188,3.58062 6.333792,3.86218 9.0255707,0.22089 10.2004991,-0.098 10.95232911,-2.97304 z m -72.09278511,-0.5512 c 0,-0.33617 -1.049764,-0.61121 -2.332808,-0.61121 -1.283045,0 -2.332808,0.67788 -2.332808,1.5064 0,0.82851 1.049763,1.10356 2.332808,0.61121 1.283044,-0.49235 2.332808,-1.17023 2.332808,-1.5064 z m 29.305885,-1.47651 c 0.996293,-2.18664 2.433974,-3.59097 3.194829,-3.12073 2.468359,1.52552 12.257642,-3.60631 15.461117,-8.10517 1.716033,-2.40995 2.999077,-5.74918 2.851206,-7.4205 -0.20101,-2.27179 0.712469,-3.04376 3.619148,-3.05852 2.138407,-0.0109 4.872944,0.68899 6.076751,1.55521 2.8320869,2.03788 9.787587,2.06107 11.89512345,0.0397 3.10512285,-2.97824 3.84586715,-7.09874 1.44197175,-8.0212 -1.26862468,-0.48682 -2.30658813,-2.16278 -2.30658813,-3.72435 0,-1.56157 -1.33503197,-3.26294 -2.96673877,-3.78082 -1.6317068,-0.51789 -3.3593504,-1.96473 -3.8391944,-3.21522 -0.4946476,-1.289 -2.7457149,-2.22043 -5.1981039,-2.15082 -2.37909,0.0675 -3.446461,0.47722 -2.371921,0.91043 3.677672,1.48269 0.264433,3.53171 -4.346799,2.60946 -3.620766,-0.72415 -4.605322,-0.37035 -4.605322,1.65496 0,1.4168 -0.935408,2.93496 -2.078688,3.37368 -2.488202,0.95482 -2.311934,7.82953 0.326788,12.7449 2.367022,4.40924 1.700617,5.47955 -5.867931,9.42449 -5.980887,3.11741 -6.124058,3.12065 -8.769243,0.19775 -1.478986,-1.63427 -3.414313,-2.52318 -4.300736,-1.97535 -0.987959,0.6106 -1.227334,-0.005 -0.618549,-1.59188 0.546188,-1.42336 0.390065,-2.58793 -0.346956,-2.58793 -2.311235,0 -3.116073,4.29876 -1.71771,9.17457 0.739344,2.57795 0.970292,6.11726 0.513218,7.86514 -1.186622,4.53764 1.797661,3.93558 3.954313,-0.79775 z M -5.6091138,-214.657 c 0,-0.85536 0.6998424,-1.5552 1.5552053,-1.5552 0.8553629,0 1.5552053,0.69984 1.5552053,1.5552 0,0.85536 -0.6998424,1.55521 -1.5552053,1.55521 -0.8553629,0 -1.5552053,-0.69985 -1.5552053,-1.55521 z m -19.2248692,-6.99842 c 0.492363,-1.28305 1.498192,-2.33281 2.235185,-2.33281 0.737011,0 0.937186,1.04976 0.444837,2.33281 -0.492364,1.28304 -1.498193,2.33281 -2.23519,2.33281 -0.737012,0 -0.937181,-1.04977 -0.444832,-2.33281 z m 8.338432,-2.47841 c 0,-0.77528 1.399685,-1.40961 3.110411,-1.40961 1.710726,0 3.11041,0.2683 3.11041,0.59622 0,0.32792 -1.399684,0.96224 -3.11041,1.40961 -1.710726,0.44736 -3.110411,0.17907 -3.110411,-0.59622 z m -7.776026,32.80491 c 0,-0.85536 -0.699843,-1.5552 -1.555206,-1.5552 -0.855363,0 -1.555205,0.69984 -1.555205,1.5552 0,0.85536 0.699842,1.55521 1.555205,1.55521 0.855363,0 1.555206,-0.69985 1.555206,-1.55521 z m 41.035433,-2.23461 c -0.471616,-1.22903 -1.849358,-1.854 -3.061611,-1.38881 -1.395452,0.53548 -2.249138,-0.21375 -2.326879,-2.04221 -0.07436,-1.748 -0.44095,-2.095 -0.928832,-0.87908 -0.5916924,1.47463 -1.349437,1.55795 -2.8491847,0.31328 -1.4780039,-1.22664 -2.3395585,-1.21597 -3.1149061,0.0384 -1.4682207,2.37564 -0.3650844,3.1724 5.7026608,4.11879 2.860581,0.44615 5.492659,1.09535 5.849064,1.44264 1.276653,1.24403 1.572687,0.59364 0.729688,-1.60317 z m -162.341446,-2.43101 c 0,-0.85536 -0.30861,-1.5552 -0.68582,-1.5552 -0.37719,0 -1.11834,0.69984 -1.64699,1.5552 -0.52865,0.85537 -0.22001,1.55521 0.68582,1.55521 0.90584,0 1.64699,-0.69984 1.64699,-1.55521 z m 78.537867,-1.19021 c 2.195143,-1.61275 7.447475,-11.32077 6.58922,-12.17903 -0.391766,-0.39174 -2.60508,1.76935 -4.918511,4.80242 -2.313446,3.03307 -4.860483,5.11035 -5.660092,4.61616 -0.799609,-0.49418 -1.453835,0.19256 -1.453835,1.52607 0,2.54342 2.797843,3.1779 5.443218,1.23438 z m 15.830654,-5.89689 c 1.828518,-3.94102 1.086233,-14.68577 -1.014553,-14.68577 -0.608615,0 -1.095599,2.97433 -1.08219,6.60962 0.01409,3.6353 -0.521708,7.83435 -1.189144,9.33124 -0.667431,1.49688 -0.613742,2.71614 0.119265,2.70947 0.733046,-0.007 2.158003,-1.79072 3.166602,-3.96456 z m -6.03286,0.55524 c 1.026435,-1.02643 1.866246,-2.88451 1.866246,-4.12905 0,-1.79624 -0.641318,-1.68241 -3.110411,0.55208 -3.194999,2.89144 -4.069894,5.44322 -1.866246,5.44322 0.68429,0 2.083975,-0.83981 3.110411,-1.86625 z m -23.017039,-5.50628 c 0,-1.07728 1.049764,-1.9587 2.332808,-1.9587 1.283045,0 2.388066,-0.87481 2.455592,-1.94401 0.09749,-1.54487 0.284505,-1.54288 0.910431,0.01 0.433222,1.07453 1.505969,1.50976 2.383897,0.96716 0.877947,-0.5426 2.271129,-0.0221 3.095981,1.15671 1.159823,1.65749 1.678514,1.70265 2.288528,0.19925 0.433854,-1.06915 2.13018,-1.94396 3.769619,-1.94396 1.639448,0 2.980813,-1.00101 2.980813,-2.22447 0,-1.53038 -1.577085,-2.13696 -5.054417,-1.944 -3.580656,0.19868 -5.054417,-0.39973 -5.054417,-2.05235 0,-1.43973 1.190757,-2.16773 3.11041,-1.90162 3.068624,0.42539 3.069849,0.39928 0.09161,-1.944 -2.931237,-2.30627 -2.908672,-2.37589 0.777602,-2.39901 2.901639,-0.0182 3.266369,-0.35919 1.547444,-1.44669 -1.394606,-0.8823 -3.404383,-0.80452 -5.29024,0.20475 -2.575405,1.37832 -2.880741,1.20939 -1.993418,-1.10292 0.576296,-1.5018 0.161649,-4.7325 -0.921425,-7.17935 -1.931799,-4.36411 -4.320409,-5.96391 -4.320409,-2.8936 0,0.85536 -0.782643,1.5552 -1.739201,1.5552 -0.956563,0 -3.752244,2.27449 -6.212612,5.05442 -4.441074,5.01789 -4.450842,5.0732 -1.3504,7.65336 1.717647,1.42942 3.988451,2.95079 5.046209,3.38081 1.372157,0.55785 1.432592,1.15 0.210973,2.06668 -0.941725,0.70664 -2.076466,3.0344 -2.52161,5.17281 -0.445177,2.13841 -1.350773,5.18204 -2.012469,6.76362 -1.089218,2.60345 -0.887366,2.67844 2.132808,0.7923 1.834754,-1.14581 3.335901,-2.96472 3.335901,-4.04201 z m -4.665616,-17.25258 c 0,-3.61162 4.679953,-5.86176 6.40073,-3.0775 0.663387,1.0734 0.856247,2.30156 0.428556,2.72924 -0.427682,0.42769 -1.428675,-0.25189 -2.224425,-1.51016 -1.224539,-1.93628 -1.450496,-1.88373 -1.470651,0.34206 -0.01312,1.4464 -0.723651,3.06235 -1.579014,3.59099 -0.855363,0.52865 -1.555205,-0.40494 -1.555205,-2.07463 z m 74.649854,21.5147 c 0,-0.85536 -0.699842,-1.55521 -1.555205,-1.55521 -0.855363,0 -1.555205,0.69985 -1.555205,1.55521 0,0.85536 0.699842,1.5552 1.555205,1.5552 0.855363,0 1.555205,-0.69984 1.555205,-1.5552 z m 20.894558,0.16296 c 0.473268,-0.76574 -0.149592,-1.77986 -1.3842254,-2.25361 -1.4973031,-0.57457 -1.9567302,-0.11102 -1.3798705,1.39225 1.0024853,2.61246 1.5721425,2.78997 2.7640959,0.86136 z m -101.275674,-7.21415 c 2.959172,-6.20546 3.367224,-10.05607 1.065646,-10.05607 -0.855362,0 -1.555205,1.7083 -1.555205,3.79623 0,2.08793 -0.615365,4.17655 -1.367482,4.64138 -1.763029,1.08961 -3.359647,7.11444 -1.885375,7.11444 0.616862,0 2.30095,-2.47319 3.742416,-5.49598 z m 4.176057,1.51619 c 0,-1.33353 -0.699842,-1.99207 -1.555205,-1.46343 -0.855363,0.52865 -1.555206,1.61971 -1.555206,2.4246 0,0.80488 0.699843,1.46342 1.555206,1.46342 0.855363,0 1.555205,-1.09107 1.555205,-2.42459 z m 54.428049,-7.19047 c 1.794523,-0.57813 1.526979,-1.17927 -1.166404,-2.62072 -3.235944,-1.73182 -3.493302,-1.54936 -3.471266,2.46103 0.01264,2.38234 0.537979,3.56166 1.166404,2.62072 0.628429,-0.94095 2.190492,-2.04841 3.471266,-2.46103 z m -11.112704,0.45914 c 1.647273,-1.04387 1.319873,-1.88036 -1.512452,-3.8642 -1.98816,-1.39256 -4.508881,-2.53194 -5.601616,-2.53194 -1.092717,0 -1.986761,-0.69984 -1.986761,-1.5552 0,-0.85536 -0.751164,-1.55521 -1.669231,-1.55521 -0.918086,0 -1.431522,1.22473 -1.140976,2.72161 0.290532,1.49689 1.907178,2.72287 3.59249,2.7244 1.685318,0.002 3.29982,1.22626 3.587801,2.72161 0.58169,3.02042 1.615498,3.31302 4.730745,1.33893 z m -48.758563,-9.50655 c 0.528643,-0.85536 0.220012,-1.5552 -0.685822,-1.5552 -0.905844,0 -1.646986,0.69984 -1.646986,1.5552 0,0.85537 0.308611,1.55521 0.685816,1.55521 0.377186,0 1.118348,-0.69984 1.646992,-1.55521 z m 11.242841,-11.82604 c -0.516795,-0.51678 -1.858159,-0.57203 -2.980813,-0.12277 -1.240636,0.49646 -0.87213,0.86497 0.939606,0.9396 1.639439,0.0675 2.557987,-0.30004 2.041207,-0.81683 z"
       id="path3732" />
  </g>
</svg>
